<mxfile host="app.diagrams.net" modified="2024-03-27T15:06:23.699Z" agent="Mozilla/5.0 (X11; Linux x86_64) AppleWebKit/537.36 (KHTML, like Gecko) Chrome/120.0.0.0 Safari/537.36" version="24.2.0" etag="ZR5cTJnsFbcfw4mpjDfH" type="github">
  <diagram name="Page-1" id="QKDvNmiI1PhG7flJE1R0">
    <mxGraphModel>
      <root>
        <mxCell id="0" />
        <mxCell id="1" parent="0" />
      </root>
    </mxGraphModel>
  </diagram>
</mxfile>
